<svg width="128" height="128" xmlns="http://www.w3.org/2000/svg">

 <g>
  <title>background</title>
  <rect fill="none" id="canvas_background" height="402" width="582" y="-1" x="-1"/>
 </g>
 <g>
  <title>Layer 1</title>
  <ellipse stroke="#000" ry="63.271806" rx="63.271806" id="svg_7" cy="64.058994" cx="64.065097" fill="#fff"/>
  <g stroke="null" id="svg_1">
   <path stroke="null" id="svg_2" fill="#ffe477" d="m68.279159,11.030984l-3.272475,-2.414879l-3.272475,2.414879a40.956977,40.956977 0 0 0 -16.023874,40.009521l7.764604,-3.51152a27.337513,27.337513 0 0 1 22.977993,0.203276l6.979419,3.308245l0.936987,-0.407424a40.952615,40.952615 0 0 0 -16.090179,-39.602097z"/>
   <path stroke="null" id="svg_3" fill="#ffb655" d="m61.734209,11.030984l3.272475,-2.414879l-11.884206,0a42.4244,42.4244 0 0 0 -42.4244,42.4244l2.953167,-1.723044a27.339258,27.339258 0 0 1 24.701037,-1.471785l7.358053,3.199191a40.956977,40.956977 0 0 1 16.023874,-40.013883z"/>
   <path stroke="null" id="svg_4" fill="#ffb655" d="m76.89089,8.616105l-11.884206,0l3.272475,2.414879a40.952615,40.952615 0 0 1 16.087561,39.602097l6.804934,-2.958401a27.34013,27.34013 0 0 1 24.120873,1.142007l4.024508,2.223817a42.4244,42.4244 0 0 0 -42.426145,-42.4244z"/>
   <path stroke="null" id="svg_5" fill="#09607d" d="m55.790361,117.229827a13.592419,13.592419 0 0 1 -13.577588,-13.577588l0,-5.08189l8.724274,0l0,5.08189a4.854186,4.854186 0 0 0 9.7075,0l0,-16.576121l8.724274,0l0,16.576121a13.592419,13.592419 0 0 1 -13.57846,13.577588z"/>
   <path stroke="null" id="svg_6" fill="#beebfa" d="m61.516974,45.297315l0,41.782293l6.979419,0l0,-41.713371a27.402945,27.402945 0 0 0 -6.979419,-0.068922z"/>
  </g>
 </g>
</svg>